<svg width="34" height="34" viewBox="0 0 34 34" fill="none" xmlns="http://www.w3.org/2000/svg">
<path d="M14.2662 29.0458C14.2662 28.838 14.2205 28.6328 14.1323 28.4447C14.0441 28.2566 13.9156 28.0901 13.7559 27.9572C13.5963 27.8243 13.4093 27.7281 13.2083 27.6754C13.0073 27.6228 12.7972 27.615 12.5929 27.6526C10.7384 27.993 8.39687 28.0442 7.7743 26.2955C7.23145 24.9412 6.33224 23.759 5.17202 22.8742C5.08923 22.8292 5.01034 22.7774 4.93614 22.7193C4.8346 22.4514 4.65424 22.2206 4.41886 22.0574C4.18348 21.8941 3.90414 21.8061 3.61769 21.8048H3.61078C3.23621 21.8047 2.87684 21.9529 2.61134 22.2171C2.34583 22.4813 2.19581 22.84 2.19411 23.2145C2.18857 24.3697 3.34303 25.1099 3.81138 25.3603C4.36366 25.9152 4.80751 26.5683 5.12014 27.2861C5.63617 28.7359 7.13584 30.9357 11.4467 30.6521C11.4481 30.7019 11.4495 30.7489 11.4502 30.7918L11.4564 31.1709C11.4564 31.5466 11.6056 31.9069 11.8713 32.1726C12.137 32.4383 12.4973 32.5875 12.8731 32.5875C13.2488 32.5875 13.6091 32.4383 13.8748 32.1726C14.1405 31.9069 14.2897 31.5466 14.2897 31.1709L14.2828 30.7199C14.2759 30.4514 14.2662 30.0626 14.2662 29.0458ZM29.3778 7.61729C29.4228 7.44021 29.467 7.24376 29.5058 7.0224C29.7349 5.44365 29.5351 3.83234 28.9275 2.35732C28.8508 2.16502 28.733 1.99183 28.5823 1.84987C28.4316 1.70792 28.2517 1.60064 28.0552 1.53555C27.5509 1.36538 25.6888 1.03058 22.1278 3.30639C19.1677 2.6098 16.0863 2.6098 13.1263 3.30639C9.57973 1.06392 7.72727 1.36822 7.22784 1.5287C7.02648 1.59114 6.84165 1.69786 6.68688 1.84101C6.53212 1.98417 6.41135 2.16014 6.33343 2.35603C5.71335 3.85937 5.51579 5.50354 5.76206 7.11099C5.79665 7.29222 5.834 7.45963 5.87274 7.61318C4.69913 9.17639 4.07401 11.0831 4.0943 13.0377C4.09048 13.4738 4.11057 13.9098 4.15448 14.3437C4.62765 20.864 8.87765 22.8216 11.8389 23.494C11.7774 23.6711 11.7213 23.8606 11.6715 24.0612C11.5828 24.4257 11.6422 24.8105 11.8367 25.1313C12.0313 25.4521 12.3451 25.6826 12.7093 25.7723C13.0736 25.8621 13.4586 25.8037 13.7799 25.61C14.1012 25.4163 14.3325 25.1031 14.4232 24.7391C14.5134 24.2671 14.7444 23.8334 15.0859 23.4953C15.2924 23.3146 15.4419 23.0777 15.5162 22.8135C15.5906 22.5493 15.5865 22.2692 15.5046 22.0073C15.4226 21.7454 15.2664 21.5129 15.0547 21.3382C14.8431 21.1634 14.5853 21.054 14.3126 21.0231C9.41925 20.4642 7.29493 18.4706 6.97536 14.0836C6.93996 13.7362 6.92403 13.387 6.92763 13.0378C6.9049 11.6447 7.36514 10.2867 8.23016 9.19449C8.31708 9.08062 8.40965 8.97119 8.50754 8.8666C8.68099 8.67252 8.7976 8.43441 8.84459 8.1784C8.89157 7.92238 8.8671 7.65838 8.77388 7.41536C8.6783 7.15969 8.60471 6.89633 8.55391 6.62816C8.4385 5.86559 8.47635 5.08766 8.66526 4.3399C9.89653 4.68765 11.0553 5.25371 12.0865 6.01111C12.257 6.12469 12.45 6.20028 12.6523 6.23274C12.8546 6.26521 13.0615 6.25379 13.259 6.19928C16.1222 5.42223 19.1409 5.42272 22.0039 6.20069C22.2024 6.25515 22.4105 6.26591 22.6136 6.23224C22.8167 6.19856 23.0101 6.12125 23.1805 6.00563C24.2068 5.24508 25.3608 4.67396 26.588 4.31919C26.7761 5.04899 26.8181 5.80875 26.7118 6.55486C26.6605 6.84887 26.5803 7.13711 26.4724 7.41538C26.3792 7.6584 26.3548 7.92241 26.4017 8.17842C26.4487 8.43443 26.5653 8.67255 26.7388 8.86663C26.8481 8.98975 26.9574 9.12257 27.0556 9.24708C27.9145 10.3208 28.367 11.6632 28.3333 13.0377C28.3358 13.4055 28.3181 13.7732 28.28 14.139C27.968 18.4678 25.8354 20.4628 20.9193 21.0231C20.6465 21.0541 20.3886 21.1638 20.177 21.3387C19.9654 21.5136 19.8092 21.7462 19.7274 22.0083C19.6455 22.2703 19.6416 22.5505 19.716 22.8147C19.7904 23.079 19.94 23.3159 20.1466 23.4967C20.4989 23.8438 20.7304 24.2948 20.8072 24.7833C20.903 25.1626 20.9469 25.553 20.938 25.9441V29.2506C20.9241 30.1678 20.9241 30.8554 20.9241 31.1708C20.9241 31.5465 21.0734 31.9068 21.339 32.1725C21.6047 32.4382 21.965 32.5875 22.3408 32.5875C22.7165 32.5875 23.0768 32.4382 23.3425 32.1725C23.6082 31.9068 23.7574 31.5465 23.7574 31.1708C23.7574 30.8637 23.7574 30.1899 23.7713 29.2727V25.9441C23.7827 25.3177 23.7089 24.6926 23.552 24.0861C23.5071 23.887 23.4522 23.6903 23.3874 23.4967C25.5425 23.1387 27.5006 22.0276 28.9132 20.3611C30.3259 18.6946 31.1013 16.5809 31.1015 14.3963C31.1482 13.945 31.1699 13.4914 31.1666 13.0377C31.198 11.081 30.5677 9.17098 29.3778 7.61732L29.3778 7.61729Z" fill="white"/>
</svg>
