<svg width="110" height="55" viewBox="0 0 110 55" fill="none" xmlns="http://www.w3.org/2000/svg">
<path d="M43.7022 38.48C43.7022 37.36 43.9288 36.38 44.3822 35.54C44.8355 34.6867 45.4555 34.0267 46.2422 33.56C47.0422 33.0933 47.9288 32.86 48.9022 32.86C49.8622 32.86 50.6955 33.0667 51.4022 33.48C52.1088 33.8933 52.6355 34.4133 52.9822 35.04V33.04H54.8222V44H52.9822V41.96C52.6222 42.6 52.0822 43.1333 51.3622 43.56C50.6555 43.9733 49.8288 44.18 48.8822 44.18C47.9088 44.18 47.0288 43.94 46.2422 43.46C45.4555 42.98 44.8355 42.3067 44.3822 41.44C43.9288 40.5733 43.7022 39.5867 43.7022 38.48ZM52.9822 38.5C52.9822 37.6733 52.8155 36.9533 52.4822 36.34C52.1488 35.7267 51.6955 35.26 51.1222 34.94C50.5622 34.6067 49.9422 34.44 49.2622 34.44C48.5822 34.44 47.9622 34.6 47.4022 34.92C46.8422 35.24 46.3955 35.7067 46.0622 36.32C45.7288 36.9333 45.5622 37.6533 45.5622 38.48C45.5622 39.32 45.7288 40.0533 46.0622 40.68C46.3955 41.2933 46.8422 41.7667 47.4022 42.1C47.9622 42.42 48.5822 42.58 49.2622 42.58C49.9422 42.58 50.5622 42.42 51.1222 42.1C51.6955 41.7667 52.1488 41.2933 52.4822 40.68C52.8155 40.0533 52.9822 39.3267 52.9822 38.5ZM59.7178 35.08C60.0911 34.4267 60.6378 33.8933 61.3578 33.48C62.0778 33.0667 62.8978 32.86 63.8178 32.86C64.8045 32.86 65.6911 33.0933 66.4778 33.56C67.2645 34.0267 67.8845 34.6867 68.3378 35.54C68.7911 36.38 69.0178 37.36 69.0178 38.48C69.0178 39.5867 68.7911 40.5733 68.3378 41.44C67.8845 42.3067 67.2578 42.98 66.4578 43.46C65.6711 43.94 64.7911 44.18 63.8178 44.18C62.8711 44.18 62.0378 43.9733 61.3178 43.56C60.6111 43.1467 60.0778 42.62 59.7178 41.98V44H57.8978V29.2H59.7178V35.08ZM67.1578 38.48C67.1578 37.6533 66.9911 36.9333 66.6578 36.32C66.3245 35.7067 65.8711 35.24 65.2978 34.92C64.7378 34.6 64.1178 34.44 63.4378 34.44C62.7711 34.44 62.1511 34.6067 61.5778 34.94C61.0178 35.26 60.5645 35.7333 60.2178 36.36C59.8845 36.9733 59.7178 37.6867 59.7178 38.5C59.7178 39.3267 59.8845 40.0533 60.2178 40.68C60.5645 41.2933 61.0178 41.7667 61.5778 42.1C62.1511 42.42 62.7711 42.58 63.4378 42.58C64.1178 42.58 64.7378 42.42 65.2978 42.1C65.8711 41.7667 66.3245 41.2933 66.6578 40.68C66.9911 40.0533 67.1578 39.32 67.1578 38.48ZM73.2334 34.82C73.5534 34.1933 74.0067 33.7067 74.5934 33.36C75.1934 33.0133 75.9201 32.84 76.7734 32.84V34.72H76.2934C74.2534 34.72 73.2334 35.8267 73.2334 38.04V44H71.4134V33.04H73.2334V34.82ZM79.8144 31.26C79.4677 31.26 79.1744 31.14 78.9344 30.9C78.6944 30.66 78.5744 30.3667 78.5744 30.02C78.5744 29.6733 78.6944 29.38 78.9344 29.14C79.1744 28.9 79.4677 28.78 79.8144 28.78C80.1477 28.78 80.4277 28.9 80.6544 29.14C80.8944 29.38 81.0144 29.6733 81.0144 30.02C81.0144 30.3667 80.8944 30.66 80.6544 30.9C80.4277 31.14 80.1477 31.26 79.8144 31.26ZM80.6944 33.04V44H78.8744V33.04H80.6944ZM93.7962 38.1C93.7962 38.4467 93.7762 38.8133 93.7362 39.2H84.9762C85.0429 40.28 85.4096 41.1267 86.0762 41.74C86.7562 42.34 87.5762 42.64 88.5362 42.64C89.3229 42.64 89.9762 42.46 90.4962 42.1C91.0296 41.7267 91.4029 41.2333 91.6162 40.62H93.5762C93.2829 41.6733 92.6962 42.5333 91.8162 43.2C90.9362 43.8533 89.8429 44.18 88.5362 44.18C87.4962 44.18 86.5629 43.9467 85.7362 43.48C84.9229 43.0133 84.2829 42.3533 83.8162 41.5C83.3496 40.6333 83.1162 39.6333 83.1162 38.5C83.1162 37.3667 83.3429 36.3733 83.7962 35.52C84.2496 34.6667 84.8829 34.0133 85.6962 33.56C86.5229 33.0933 87.4696 32.86 88.5362 32.86C89.5762 32.86 90.4962 33.0867 91.2962 33.54C92.0962 33.9933 92.7096 34.62 93.1362 35.42C93.5762 36.2067 93.7962 37.1 93.7962 38.1ZM91.9162 37.72C91.9162 37.0267 91.7629 36.4333 91.4562 35.94C91.1496 35.4333 90.7296 35.0533 90.1962 34.8C89.6762 34.5333 89.0962 34.4 88.4562 34.4C87.5362 34.4 86.7496 34.6933 86.0962 35.28C85.4562 35.8667 85.0896 36.68 84.9962 37.72H91.9162ZM98.0186 29.2V44H96.1986V29.2H98.0186Z" fill="white"/>
<path d="M11.0785 25.4155L29.3255 0L0 26.7188L33.2356 42.3591L11.0785 25.4155Z" fill="url(#paint0_linear_501_149)"/>
<path d="M33.9868 29.7696L29.1063 53.4306L41.3907 25.3679L13.0335 24.7841L33.9868 29.7696Z" fill="url(#paint1_linear_501_149)"/>
<defs>
<linearGradient id="paint0_linear_501_149" x1="16.6178" y1="0" x2="32.5303" y2="50.7218" gradientUnits="userSpaceOnUse">
<stop stop-color="#00E0B8"/>
<stop offset="1" stop-color="#C111FF"/>
</linearGradient>
<linearGradient id="paint1_linear_501_149" x1="38.069" y1="49.4361" x2="10.9023" y2="18.6643" gradientUnits="userSpaceOnUse">
<stop stop-color="#00E0B8"/>
<stop offset="1" stop-color="#C111FF"/>
</linearGradient>
</defs>
</svg>
