<svg width="24" height="24" viewBox="0 0 24 24" fill="none" xmlns="http://www.w3.org/2000/svg">
<path d="M12.0884 4.07219e-08C9.75079 4.07219e-08 7.46566 0.693187 5.522 1.9919C3.57833 3.29062 2.06343 5.13653 1.16886 7.29622C0.274286 9.45591 0.0402256 11.8324 0.496274 14.1251C0.952322 16.4178 2.078 18.5238 3.73095 20.1767C5.3839 21.8297 7.48989 22.9554 9.7826 23.4114C12.0753 23.8674 14.4518 23.6334 16.6115 22.7388C18.7711 21.8442 20.6171 20.3293 21.9158 18.3857C23.2145 16.442 23.9077 14.1569 23.9077 11.8193C23.9078 10.2671 23.6022 8.7301 23.0082 7.29607C22.4143 5.86203 21.5437 4.55904 20.4462 3.46149C19.3486 2.36395 18.0456 1.49335 16.6116 0.899425C15.1776 0.305497 13.6406 -0.000128805 12.0884 4.07219e-08ZM15.8464 17.9091C15.8021 18.0194 15.7348 18.119 15.6489 18.2011C15.5631 18.2833 15.4606 18.3462 15.3485 18.3855C15.2363 18.4249 15.1171 18.4398 14.9987 18.4293C14.8803 18.4187 14.7655 18.383 14.6621 18.3245L11.4535 15.8314L9.39425 17.7312C9.34646 17.7665 9.29057 17.7893 9.2317 17.7973C9.17284 17.8054 9.1129 17.7985 9.0574 17.7773L9.45216 14.2451L9.4648 14.2552L9.47287 14.1854C9.47287 14.1854 15.2466 8.92879 15.4818 8.70483C15.7199 8.48145 15.6413 8.43299 15.6413 8.43299C15.6549 8.16052 15.214 8.43299 15.214 8.43299L7.56401 13.3546L4.37814 12.2696C4.37814 12.2696 3.88883 12.094 3.84273 11.7082C3.79427 11.3252 4.39409 11.1172 4.39409 11.1172L17.0608 6.08513C17.0608 6.08513 18.1021 5.6212 18.1021 6.38949L15.8464 17.9091Z" fill="url(#paint0_linear_524_48)"/>
<defs>
<linearGradient id="paint0_linear_524_48" x1="0.269165" y1="-3.32417" x2="23.9077" y2="23.6385" gradientUnits="userSpaceOnUse">
<stop stop-color="#00E0FF"/>
<stop offset="0.864583" stop-color="#02A4FF"/>
</linearGradient>
</defs>
</svg>
