<svg width="36" height="31" viewBox="0 0 36 31" fill="none" xmlns="http://www.w3.org/2000/svg">
<path d="M35.989 2.16696C35.9892 1.87447 35.9128 1.58715 35.7676 1.33427C35.6224 1.08138 35.4136 0.871967 35.1625 0.727346C34.9113 0.582724 34.6268 0.508064 34.3379 0.51097C34.0489 0.513875 33.7659 0.594243 33.5177 0.743886C32.5602 1.32079 31.5293 1.76259 30.4537 2.05704C28.9176 0.722744 26.9585 -0.00740578 24.9344 5.66402e-05C22.7138 0.00264426 20.5812 0.878684 18.9868 2.44319C17.3924 4.0077 16.461 6.13821 16.3893 8.38485C12.0117 7.6782 8.04423 5.3653 5.24336 1.88719C5.0746 1.67993 4.85907 1.51678 4.61496 1.41152C4.37085 1.30626 4.10532 1.26196 3.84075 1.28236C3.57633 1.3044 3.32119 1.39131 3.09741 1.53557C2.87362 1.67983 2.68791 1.87711 2.55635 2.11033C1.8816 3.30229 1.49407 4.63854 1.42524 6.01057C1.3564 7.38259 1.60819 8.75171 2.16016 10.0067L2.15697 10.01C1.90889 10.1646 1.70415 10.3812 1.56235 10.6388C1.42054 10.8965 1.3464 11.1866 1.34703 11.4816C1.34402 11.7249 1.35844 11.9681 1.39016 12.2093C1.55725 14.2929 2.46947 16.2432 3.95577 17.6945C3.85494 17.889 3.7934 18.1018 3.77475 18.3206C3.75609 18.5394 3.7807 18.7598 3.84713 18.9688C4.49511 21.0125 5.87313 22.7379 7.71151 23.8073C5.84377 24.5384 3.82706 24.7933 1.83906 24.5495C1.47111 24.5028 1.09839 24.584 0.782051 24.7799C0.465707 24.9758 0.224518 25.2747 0.0980483 25.6276C-0.0284218 25.9805 -0.0326637 26.3664 0.0860181 26.722C0.2047 27.0777 0.439259 27.3819 0.751218 27.5849C4.1703 29.814 8.15127 30.9992 12.2181 30.9987C16.83 31.0512 21.3298 29.5593 25.0174 26.7552C28.7051 23.9511 31.3739 19.992 32.6087 15.4936C33.1863 13.534 33.4811 11.5003 33.4842 9.45533C33.4842 9.34698 33.4842 9.2354 33.4826 9.12383C34.3367 8.19142 34.9983 7.09581 35.4287 5.90121C35.8591 4.70661 36.0496 3.43705 35.989 2.16696ZM30.5799 7.48568C30.3097 7.80915 30.1729 8.22555 30.198 8.64839C30.214 8.92162 30.2124 9.19651 30.2124 9.45533C30.2091 11.1834 29.9589 12.9018 29.4696 14.5574C28.4611 18.3849 26.2129 21.7591 23.085 24.1396C19.9571 26.5201 16.1306 27.7692 12.2181 27.6868C10.8128 27.6872 9.4122 27.5201 8.04546 27.1887C9.78831 26.6202 11.4179 25.7436 12.8587 24.5997C13.1241 24.3882 13.3183 24.0987 13.4148 23.771C13.5112 23.4434 13.505 23.0935 13.3972 22.7695C13.2894 22.4455 13.0852 22.1631 12.8126 21.9613C12.54 21.7594 12.2123 21.6479 11.8746 21.642C10.515 21.6206 9.21658 21.0658 8.25306 20.0944C8.49749 20.0475 8.74031 19.9893 8.98154 19.9197C9.3349 19.8179 9.64413 19.5987 9.85943 19.2973C10.0747 18.996 10.1836 18.6301 10.1685 18.2585C10.1533 17.8869 10.0151 17.5312 9.77604 17.2488C9.53697 16.9664 9.21098 16.7737 8.85054 16.7017C8.0613 16.5439 7.31864 16.204 6.68028 15.7084C6.04192 15.2128 5.52506 14.5749 5.16988 13.8442C5.46552 13.8851 5.76305 13.9104 6.06128 13.9202C6.41558 13.9256 6.7624 13.8168 7.05159 13.6096C7.34078 13.4023 7.55734 13.1073 7.66998 12.7672C7.77791 12.424 7.77236 12.0546 7.65416 11.7149C7.53596 11.3752 7.31157 11.0838 7.015 10.8849C6.29547 10.3996 5.70606 9.74131 5.29958 8.96888C4.89309 8.19644 4.68221 7.33401 4.68583 6.45882C4.68583 6.34886 4.68902 6.23889 4.69541 6.13054C8.36178 9.59187 13.1173 11.6323 18.1241 11.8924C18.3768 11.9024 18.6285 11.8542 18.8602 11.7514C19.0918 11.6486 19.2973 11.4939 19.4612 11.2989C19.6235 11.102 19.7384 10.8697 19.7968 10.6202C19.8553 10.3707 19.8558 10.1109 19.7982 9.86125C19.7047 9.46608 19.6569 9.06122 19.656 8.65487C19.6575 7.23827 20.2141 5.88013 21.2036 4.87845C22.1932 3.87677 23.5348 3.31337 24.9343 3.31188C25.6543 3.30992 26.3668 3.45909 27.027 3.74995C27.6872 4.04081 28.2806 4.46705 28.7699 5.00177C28.9585 5.20725 29.196 5.36044 29.4597 5.44678C29.7234 5.53313 30.0045 5.54974 30.2763 5.49506C30.9483 5.36268 31.6106 5.18439 32.2588 4.96142C31.8167 5.87711 31.2517 6.72656 30.5799 7.48568Z" fill="#03A9F4"/>
</svg>
