<svg width="37" height="37" viewBox="0 0 37 37" fill="none" xmlns="http://www.w3.org/2000/svg">
<g clip-path="url(#clip0_505_233)">
<path d="M8.30902 10.2675C8.30902 10.6334 8.41752 10.991 8.6208 11.2953C8.82408 11.5995 9.11301 11.8366 9.45105 11.9766C9.7891 12.1167 10.1611 12.1533 10.5199 12.0819C10.8788 12.0105 11.2084 11.8343 11.4672 11.5756C11.7259 11.3169 11.9021 10.9872 11.9735 10.6284C12.0449 10.2695 12.0082 9.89754 11.8682 9.55949C11.7282 9.22145 11.4911 8.93252 11.1868 8.72924C10.8826 8.52596 10.5249 8.41746 10.159 8.41746C9.66837 8.41746 9.19781 8.61237 8.85087 8.95931C8.50393 9.30625 8.30902 9.77681 8.30902 10.2675V10.2675ZM12.0399 3.17579C10.7607 3.20577 9.49518 3.44534 8.2936 3.88496C7.26551 4.27696 6.33457 4.88707 5.56485 5.67329C4.77463 6.43669 4.16837 7.36981 3.79194 8.40204C3.33893 9.60045 3.09388 10.8674 3.06735 12.1483C2.97485 13.7825 2.97485 14.3066 2.97485 18.5C2.97485 22.6933 2.97485 23.2175 3.06735 24.8516C3.09389 26.1325 3.33893 27.3995 3.79194 28.5979C4.17219 29.6282 4.77793 30.5605 5.56485 31.3266C6.32825 32.1168 7.26136 32.7231 8.2936 33.0995C9.49201 33.5525 10.759 33.7976 12.0399 33.8241C13.674 33.9166 14.1982 33.9166 18.3915 33.9166C22.5849 33.9166 23.109 33.9166 24.7432 33.8241C26.0241 33.7976 27.291 33.5525 28.4894 33.0995C29.5217 32.7231 30.4548 32.1168 31.2182 31.3266C32.0051 30.5605 32.6109 29.6282 32.9911 28.5979C33.4441 27.3995 33.6892 26.1325 33.7157 24.8516C33.8082 23.2175 33.8082 22.6933 33.8082 18.5C33.8082 14.3066 33.8082 13.7825 33.7157 12.1483C33.6892 10.8674 33.4441 9.60045 32.9911 8.40204C32.6147 7.3698 32.0084 6.43669 31.2182 5.67329C30.4513 4.88359 29.5196 4.27294 28.4894 3.88496C27.2879 3.44534 26.0223 3.20577 24.7432 3.17579C23.109 3.17579 22.5849 3.08329 18.3915 3.08329C14.1982 3.08329 13.674 3.08329 12.0399 3.17579V3.17579ZM24.5582 5.95079C25.5368 5.96202 26.5064 6.13926 27.4257 6.47496C28.0966 6.72111 28.7028 7.11648 29.1986 7.63121C29.7081 8.13125 30.1027 8.73624 30.3549 9.40413C30.6906 10.3234 30.8678 11.293 30.879 12.2716C30.9561 13.8133 30.9715 14.3837 30.9715 18.4383C30.9715 22.4929 30.9715 23.0633 30.879 24.605C30.898 25.6211 30.7416 26.6329 30.4165 27.5958C30.1515 28.2344 29.7579 28.8116 29.2603 29.2916C28.765 29.8033 28.1583 30.1937 27.4874 30.4325C26.5549 30.8088 25.5633 31.0176 24.5582 31.0491C23.0165 31.0491 22.4461 31.1416 18.3915 31.1416C14.3369 31.1416 13.7665 31.1416 12.2249 31.0491C11.2244 31.0422 10.2329 30.8596 9.29569 30.5095C8.64497 30.2381 8.06491 29.8216 7.59985 29.2916C7.06978 28.8232 6.64879 28.2444 6.36652 27.5958C6.02742 26.6561 5.85018 25.6656 5.84235 24.6666C5.84235 23.125 5.74985 22.5545 5.74985 18.5C5.74985 14.4454 5.74985 13.875 5.84235 12.3333C5.85358 11.3547 6.03082 10.3851 6.36652 9.46579C6.62652 8.76521 7.04924 8.13643 7.59985 7.63121C8.07342 7.126 8.6524 6.73124 9.29569 6.47496C10.2345 6.13232 11.2255 5.95497 12.2249 5.95079C13.7665 5.87371 14.3369 5.85829 18.3915 5.85829C22.4461 5.85829 23.0165 5.87371 24.5582 5.95079ZM10.4828 18.5C10.4858 20.0635 10.9522 21.5911 11.8231 22.8896C12.694 24.1882 13.9302 25.1995 15.3756 25.7957C16.821 26.3919 18.4107 26.5463 19.9439 26.2394C21.477 25.9325 22.8848 25.1781 23.9893 24.0714C25.0938 22.9648 25.8455 21.5555 26.1494 20.0218C26.4533 18.4881 26.2958 16.8987 25.6968 15.4544C25.0977 14.0102 24.084 12.7759 22.7838 11.9076C21.4835 11.0392 19.9551 10.5758 18.3915 10.5758C17.3511 10.5738 16.3205 10.7774 15.359 11.1751C14.3975 11.5728 13.5242 12.1567 12.7892 12.8931C12.0542 13.6296 11.472 14.504 11.0762 15.4663C10.6804 16.4285 10.4787 17.4595 10.4828 18.5V18.5ZM23.5253 18.5C23.5253 19.5153 23.2242 20.5079 22.6601 21.3521C22.096 22.1964 21.2942 22.8544 20.3561 23.2429C19.4181 23.6315 18.3858 23.7332 17.39 23.5351C16.3941 23.337 15.4794 22.848 14.7614 22.1301C14.0434 21.4121 13.5545 20.4974 13.3564 19.5015C13.1583 18.5057 13.26 17.4734 13.6486 16.5354C14.0371 15.5973 14.6951 14.7955 15.5394 14.2314C16.3836 13.6673 17.3762 13.3662 18.3915 13.3662C19.0657 13.3662 19.7333 13.499 20.3561 13.757C20.979 14.015 21.5449 14.3931 22.0216 14.8698C22.4983 15.3466 22.8765 15.9125 23.1345 16.5354C23.3925 17.1582 23.5253 17.8258 23.5253 18.5V18.5Z" fill="url(#paint0_linear_505_233)"/>
</g>
<defs>
<linearGradient id="paint0_linear_505_233" x1="2.97485" y1="18.5" x2="33.8082" y2="18.5" gradientUnits="userSpaceOnUse">
<stop stop-color="#FF9900"/>
<stop offset="1" stop-color="#FF4567"/>
</linearGradient>
<clipPath id="clip0_505_233">
<rect width="37" height="37" fill="white" transform="translate(0 37) rotate(-90)"/>
</clipPath>
</defs>
</svg>
